<?xml version="1.0" standalone="no"?>
<!DOCTYPE svg PUBLIC "-//W3C//DTD SVG 20010904//EN"
 "http://www.w3.org/TR/2001/REC-SVG-20010904/DTD/svg10.dtd">
<svg version="1.0" xmlns="http://www.w3.org/2000/svg"
 width="1200.000000pt" height="1200.000000pt" viewBox="0 0 1200.000000 1200.000000"
 preserveAspectRatio="xMidYMid meet">
<metadata>
Created by potrace 1.11, written by Peter Selinger 2001-2013
</metadata>
<g transform="translate(0.000000,1200.000000) scale(0.100000,-0.100000)"
fill="#000000" stroke="none">
<path d="M5897 11314 c-1 -1 -72 -4 -157 -8 -85 -3 -166 -8 -180 -10 -26 -4
-105 -13 -205 -22 -33 -3 -71 -7 -85 -9 -14 -2 -56 -9 -95 -15 -110 -17 -129
-20 -145 -25 -8 -3 -31 -7 -50 -9 -60 -8 -313 -65 -406 -92 -49 -15 -93 -27
-99 -29 -98 -22 -489 -156 -570 -195 -11 -5 -47 -20 -80 -34 -159 -65 -481
-225 -610 -303 -11 -7 -27 -15 -35 -19 -8 -4 -69 -41 -135 -82 -322 -200 -639
-442 -904 -690 -119 -111 -314 -308 -372 -376 -19 -22 -45 -51 -58 -65 -13
-14 -51 -60 -84 -101 -34 -41 -64 -77 -68 -80 -4 -3 -57 -72 -119 -155 -253
-336 -467 -696 -649 -1088 -23 -49 -41 -91 -41 -93 0 -2 -11 -27 -24 -56 -32
-72 -113 -286 -143 -378 -13 -41 -27 -82 -30 -90 -3 -8 -7 -20 -9 -27 -1 -7
-11 -41 -23 -75 -17 -55 -40 -133 -47 -163 -1 -5 -11 -46 -23 -91 -19 -76 -47
-199 -57 -254 -2 -14 -11 -59 -19 -100 -17 -89 -22 -120 -30 -179 -3 -23 -7
-55 -9 -70 -63 -407 -64 -1003 -5 -1426 6 -38 13 -90 16 -115 3 -25 16 -106
30 -180 13 -74 27 -150 30 -168 5 -30 20 -45 114 -122 10 -8 35 -26 54 -40 31
-21 94 -69 131 -99 6 -5 44 -32 84 -61 40 -29 108 -78 149 -109 63 -46 902
-647 951 -681 8 -6 69 -49 135 -96 66 -47 126 -89 133 -93 8 -4 15 -23 17 -42
2 -19 6 -54 9 -79 10 -69 27 -209 42 -340 8 -78 15 -134 19 -165 2 -16 9 -73
15 -125 6 -52 13 -108 15 -125 2 -16 7 -57 10 -90 4 -33 9 -73 11 -90 2 -16 8
-70 14 -120 14 -127 19 -165 35 -295 8 -63 17 -140 21 -170 3 -30 8 -68 10
-85 4 -38 12 -104 20 -174 3 -30 7 -61 9 -70 1 -9 6 -47 9 -86 4 -38 9 -81 12
-95 l4 -25 1318 -1 c1514 -1 1660 -3 1666 -20 10 -25 146 -125 224 -164 130
-65 241 -89 397 -86 134 3 151 6 245 32 105 30 241 108 322 186 l47 44 148 3
c81 2 750 4 1485 5 1267 1 1338 2 1339 19 3 32 19 167 24 197 1 8 6 47 9 85 4
39 9 81 11 95 2 14 6 48 10 75 3 28 7 66 10 85 2 19 9 78 15 130 6 52 13 109
15 125 2 17 7 55 10 85 5 48 10 93 30 250 3 19 7 60 10 90 3 30 7 66 10 80 2
14 7 53 10 87 3 34 7 70 9 80 2 10 7 47 11 83 3 36 8 79 10 95 3 17 7 57 10
90 3 33 8 67 10 75 2 8 7 45 10 82 3 37 8 77 10 90 3 13 7 48 10 78 3 30 7 63
8 73 3 16 41 47 184 146 105 74 934 666 1053 753 36 27 74 54 85 62 20 15 222
164 240 178 58 44 173 135 183 145 23 22 77 316 107 583 4 30 8 65 10 77 20
129 28 756 12 943 -5 52 -10 115 -12 140 -5 54 -14 123 -36 275 -6 44 -13 89
-15 100 -3 11 -13 67 -23 125 -11 58 -29 146 -41 195 -12 50 -24 97 -26 105
-2 8 -10 42 -18 76 -8 34 -40 140 -70 236 -138 439 -318 838 -552 1228 -35 58
-71 119 -81 135 -10 17 -20 32 -23 35 -3 3 -23 32 -44 65 -305 470 -774 980
-1241 1351 -178 141 -494 364 -515 364 -5 0 -10 3 -12 8 -1 4 -15 14 -30 22
-15 8 -64 37 -110 64 -130 78 -191 111 -368 199 -136 68 -431 201 -450 202 -3
1 -32 11 -65 24 -120 47 -402 141 -469 156 -12 3 -64 16 -116 30 -81 21 -133
34 -255 60 -11 3 -42 9 -70 15 -27 5 -59 11 -70 14 -11 2 -56 9 -100 16 -44 7
-88 14 -99 16 -10 2 -44 6 -75 9 -31 4 -67 8 -81 11 -14 2 -52 6 -85 9 -33 3
-81 8 -106 10 -120 12 -582 27 -592 19z"/>
</g>
</svg>
